# xmcd
#
# Track frame offsets:
#	150
#	18148
#	34685
#	50975
#	68962
#	86872
#	106432
#	123186
#	139670
#	156079
#	175168
#	189758
#	205974
#	220324
#	235070
#	252939
#	273382
#	292048
#
# Disc length: 4042 seconds
#
# Revision: 0
# Processed by: cddbd v1.5.2PL0 Copyright (c) Steve Scherf et al.
# Submitted via: dBpowerAMP V4.0
#
DISCID=080fc812
DTITLE=Various Artist - CDX 461
DYEAR=2008
DGENRE=Country
TTITLE0=01 - Jessica Andrews - Everything
TTITLE1=02 - Toby Keith - God Love Her
TTITLE2=03 - Crystal Shawanda - My Roots Are Showing
TTITLE3=04 - Martina McBride - Ride
TTITLE4=05 - Chuck Wicks - What If You Stay
TTITLE5=06 - Jason Michael Carroll - Where I'm From
TTITLE6=07 - Kevin Costner - 90 Miles An Hour
TTITLE7=08 - Kevin Costner - Hey Man What About You
TTITLE8=09 - Kevin Costner - Long Hot Night
TTITLE9=10 - Kevin Costner - Superman 14
TTITLE10=12 - Kevin Fowler - Cheaper To Keep Her
TTITLE11=12 Point Of Grace - I Wish
TTITLE12=13 - Carolina Rain - Weight Of The World
TTITLE13=14 - Ritchie Fields - Devil In The Mirror
TTITLE14=15 - Andy Gibson - Feel Good
TTITLE15=16 - Sammy Sadler - John 3:16
TTITLE16=17 - Charley Rivers - Lovin' In The Country
TTITLE17=18 - Harvey Perdue - Get Up Dow Jones
EXTD=
EXTT0=
EXTT1=
EXTT2=
EXTT3=
EXTT4=
EXTT5=
EXTT6=
EXTT7=
EXTT8=
EXTT9=
EXTT10=
EXTT11=
EXTT12=
EXTT13=
EXTT14=
EXTT15=
EXTT16=
EXTT17=
PLAYORDER=
